<svg xmlns="http://www.w3.org/2000/svg" xmlns:xlink="http://www.w3.org/1999/xlink" viewBox="9788 3406 305 42"><defs><style>.a{fill:none;}.b{fill:#fff;}.c{font-size:12px;font-family:Roboto-Medium, Roboto;font-weight:500;letter-spacing:0.1em;}.d{clip-path:url(#a);}</style><clipPath id="a"><rect class="a" width="72" height="2"/></clipPath></defs><g transform="translate(8345 2836)"><rect class="b" width="305" height="42" transform="translate(1443 570)"/><text class="c" transform="translate(1579 596)"><tspan x="0" y="0">LOGO</tspan></text><g class="d" transform="translate(1492 591)"><g transform="translate(-764 -173)"><rect width="12" height="2" rx="1" transform="translate(764 173)"/></g><g transform="translate(-744 -173)"><rect width="12" height="2" rx="1" transform="translate(764 173)"/></g><g transform="translate(-724 -173)"><rect width="12" height="2" rx="1" transform="translate(764 173)"/></g><g transform="translate(-704 -173)"><rect width="12" height="2" rx="1" transform="translate(764 173)"/></g></g><g class="d" transform="translate(1628 591)"><g transform="translate(-764 -173)"><rect width="12" height="2" rx="1" transform="translate(764 173)"/></g><g transform="translate(-744 -173)"><rect width="12" height="2" rx="1" transform="translate(764 173)"/></g><g transform="translate(-724 -173)"><rect width="12" height="2" rx="1" transform="translate(764 173)"/></g><g transform="translate(-704 -173)"><rect width="12" height="2" rx="1" transform="translate(764 173)"/></g></g></g></svg>