<svg xmlns="http://www.w3.org/2000/svg" viewBox="-193 -42 255 190"><defs><style>.a{fill:#e3e3e4;}.b,.g{fill:#fff;}.c,.d,.e,.f{fill:#727476;}.c{font-size:9px;font-family:SegoeUI-Semibold, Segoe UI;font-weight:600;}.e{opacity:0.5;}.f{opacity:0.6;}.g{stroke:#95989a;}.h{stroke:none;}.i{fill:none;}</style></defs><path class="a" d="M0,0H255V142H0Z" transform="translate(-193 -42)"/><path class="b" d="M0,0H255V95H0Z" transform="translate(-193 48)"/><text class="c" transform="translate(8 84.046)"><tspan x="0" y="0">Next Post</tspan></text><path class="d" d="M23.145,314.642a.321.321,0,0,1-.452,0l-3.681-3.681a.32.32,0,1,1,.452-.452l3.681,3.681A.322.322,0,0,1,23.145,314.642Zm0-.452a.322.322,0,0,1,0,.452l-3.681,3.681a.32.32,0,0,1-.452-.452l3.681-3.681A.321.321,0,0,1,23.145,314.19Zm-.112.225a.321.321,0,0,1-.32.32H3.2a.321.321,0,0,1-.32-.32h0a.321.321,0,0,1,.32-.32H22.713a.321.321,0,0,1,.32.32Z" transform="translate(24.12 -248.416)"/><path class="d" d="M23.145,314.642a.321.321,0,0,1-.452,0l-3.681-3.681a.32.32,0,1,1,.452-.452l3.681,3.681A.322.322,0,0,1,23.145,314.642Zm0-.452a.322.322,0,0,1,0,.452l-3.681,3.681a.32.32,0,0,1-.452-.452l3.681-3.681A.321.321,0,0,1,23.145,314.19Zm-.112.225a.321.321,0,0,1-.32.32H3.2a.321.321,0,0,1-.32-.32h0a.321.321,0,0,1,.32-.32H22.713a.321.321,0,0,1,.32.32Z" transform="translate(-154.762 380.416) rotate(180)"/><text class="c" transform="translate(-178 82.046)"><tspan x="0" y="0">Previous Post</tspan></text><g transform="translate(0 1)"><g transform="translate(40 7)"><rect class="e" width="55.5" height="5" rx="2.5" transform="translate(-178 96)"/><rect class="e" width="32.953" height="5" rx="2.5" transform="translate(-178 108)"/></g><rect class="f" width="32" height="32" rx="2" transform="translate(-178 95)"/></g><g transform="translate(71 -32)"><rect class="e" width="55.5" height="5" rx="2.5" transform="translate(-119 136)"/><rect class="e" width="32.953" height="5" rx="2.5" transform="translate(-96 148)"/><rect class="f" width="32" height="32" rx="2" transform="translate(-56 128)"/></g><g class="g" transform="translate(2 147)"><rect class="h" width="1" height="1"/><rect class="i" x="0.5" y="0.5"/></g></svg>